<?xml version="1.0" encoding="utf-8"?>
<!-- Generator: Adobe Illustrator 21.0.0, SVG Export Plug-In . SVG Version: 6.00 Build 0)  -->
<svg version="1.1" id="图层_1" xmlns="http://www.w3.org/2000/svg" xmlns:xlink="http://www.w3.org/1999/xlink" x="0px" y="0px"
	 viewBox="0 0 200 200" style="enable-background:new 0 0 200 200;" xml:space="preserve">
<style type="text/css">
	.st0{fill:#737987;}
	.st1{fill:#0090f4;}
</style>
<path class="st0" d="M-162.1,74.3"/>
<g>
	<path class="st1" d="M24.2,51.2h21.6v7.2c0,4,3.2,7.2,7.2,7.2h43.2c1.9,0,3.7-0.8,5.1-2.1c1.3-1.4,2.1-3.2,2.1-5.1v-7.2h72
		c3.9-0.2,6.9-3.3,6.9-7.2c0-3.9-3-7-6.9-7.2h-72v-7.2c0-4-3.2-7.2-7.2-7.2H53c-4,0-7.2,3.2-7.2,7.2v7.2H24.2
		c-3.9,0.2-6.9,3.3-6.9,7.2C17.3,47.9,20.4,51.1,24.2,51.2L24.2,51.2z M60.2,36.8H89v14.4H60.2V36.8z M175.3,94.4h-21.6v-7.2
		c0-1.9-0.8-3.7-2.1-5.1c-1.3-1.4-3.2-2.1-5.1-2.1h-43.2c-1.9,0-3.7,0.8-5.1,2.1c-1.3,1.4-2.1,3.2-2.1,5.1v7.2h-72
		c-4,0-7.2,3.2-7.2,7.2c0,4,3.2,7.2,7.2,7.2h72v7.2c0,4,3.2,7.2,7.2,7.2h43.2c1.9,0,3.7-0.8,5.1-2.1c1.3-1.4,2.1-3.2,2.1-5.1v-7.2
		h21.6c4,0,7.2-3.2,7.2-7.2C182.5,97.6,179.3,94.4,175.3,94.4L175.3,94.4z M139.3,108.8h-28.8V94.4h28.8V108.8z M175.3,151.9h-72
		v-7.2c0-4-3.2-7.2-7.2-7.2H53c-1.9,0-3.7,0.8-5.1,2.1c-1.3,1.4-2.1,3.2-2.1,5.1v7.2H24.2c-3.9,0.2-6.9,3.3-6.9,7.2
		c0,3.9,3,7,6.9,7.2h21.6v7.2c0,4,3.2,7.2,7.2,7.2h43.2c4,0,7.2-3.2,7.2-7.2v-7.2h72c3.9-0.2,6.9-3.3,6.9-7.2
		C182.2,155.3,179.2,152.1,175.3,151.9L175.3,151.9z M89,166.3H60.2v-14.4H89V166.3z M89,166.3"/>
</g>
</svg>
