<?xml version="1.0" encoding="utf-8"?>
<!-- Generator: Adobe Illustrator 21.0.0, SVG Export Plug-In . SVG Version: 6.00 Build 0)  -->
<svg version="1.1" id="图层_1" xmlns="http://www.w3.org/2000/svg" xmlns:xlink="http://www.w3.org/1999/xlink" x="0px" y="0px"
	 viewBox="0 0 200 200" style="enable-background:new 0 0 200 200;" xml:space="preserve">
<style type="text/css">
	.st0{fill:#737987;}
	.st1{fill:#0090f4;}
</style>
<path class="st0" d="M-162.1,74.3"/>
<g>
	<path class="st1" d="M186.2,43.5C184.8,21.8,147.5,5,100,5S15.2,21.8,13.8,43.5h-0.1v111.7c0,22.3,37.9,39.8,86.4,39.8
		c48.4,0,86.4-17.5,86.4-39.8V43.5L186.2,43.5L186.2,43.5z M100,18.4c43.3,0,72.6,13.8,73.7,28.1c-1.1,14.3-30.4,28.1-73.7,28.1
		c-43.3,0-72.6-13.8-73.7-28.1C27.4,32.2,56.7,18.4,100,18.4L100,18.4z M100,181.6c-44.1,0-73.8-14.4-73.8-28.9v-28.8
		c15,11.4,42.1,18.9,73.8,18.9s58.8-7.5,73.8-18.9v28.8C173.8,167.2,144.1,181.6,100,181.6L100,181.6z M173.8,98.3v2.1
		c0,14.6-29.7,28.9-73.8,28.9c-44.1,0-73.8-14.4-73.8-28.9V69.1C41.2,80.5,68.3,88,100,88s58.8-7.5,73.8-18.9V98.3L173.8,98.3z
		 M173.8,98.3"/>
</g>
</svg>
