<?xml version="1.0" encoding="utf-8"?>
<!-- Generator: Adobe Illustrator 21.0.0, SVG Export Plug-In . SVG Version: 6.00 Build 0)  -->
<svg version="1.1" id="图层_1" xmlns="http://www.w3.org/2000/svg" xmlns:xlink="http://www.w3.org/1999/xlink" x="0px" y="0px"
	 viewBox="0 0 200 200" style="enable-background:new 0 0 200 200;" xml:space="preserve">
<style type="text/css">
	.st0{fill:#737987;}
	.st1{fill:none;}
	.st2{fill:#0090f4;}
</style>
<path class="st0" d="M-162.1,74.3"/>
<rect x="29.3" y="-20.4" transform="matrix(1.458634e-02 -0.9999 0.9999 1.458634e-02 21.3747 190.6295)" class="st1" width="156.3" height="209.8"/>
<rect x="29.4" y="-20.3" transform="matrix(1.458572e-02 -0.9999 0.9999 1.458572e-02 21.375 190.6297)" class="st1" width="156.1" height="209.6"/>
<rect x="29.4" y="-20.3" transform="matrix(1.458673e-02 -0.9999 0.9999 1.458673e-02 21.3751 190.6296)" class="st1" width="156.1" height="209.6"/>
<g>
	<path class="st2" d="M26.1,81.5c7.3-6.8,16.8-10.6,26.8-10.6c0.4,0,0.9,0,1.3,0l5.8,0.2l0.9-5.7c4.2-26.4,27.3-46.3,53.8-46.3
		c0.5,0,1.1,0,1.6,0c22.5,0.7,42,14.9,49.7,36.3l0.4,1.2l12.3-4.4l-0.4-1.2c-9.5-26.5-33.7-44.1-61.6-45c-0.7,0-1.3,0-2,0
		C84,6,56.4,27.9,49,57.9c-26.3,1.8-47.5,24-48.3,50.6c-0.4,13.9,4.6,27.2,14.1,37.3c9.5,10.2,22.4,16,36.3,16.4h0l18-0.1l0-13.1
		l-17.7,0.1c-21.4-0.6-38.2-18.7-37.6-40.3C14.1,98.6,18.6,88.6,26.1,81.5z"/>
	<path class="st2" d="M198.9,140.4l-0.1-0.4l0-3.5h-0.7l-10.8-56.2H93.3l-12,56.2h-0.4v1.8l-0.4,1.9l0.4,0.1v45.8h118L198.9,140.4
		L198.9,140.4z M103.9,93.4h72.8l8.3,43.1h-23.2l-0.9,5.4c-1.8,10.2-10.6,17.7-20.9,17.7c-10.3,0-19.1-7.4-20.9-17.7l-0.9-5.4H94.7
		L103.9,93.4z M185.8,173H94v-23.4h13.5c4.7,13.8,17.7,23.1,32.4,23.1c14.6,0,27.6-9.3,32.4-23.1h13.5L185.8,173z"/>
</g>
</svg>
