<?xml version="1.0" encoding="utf-8"?>
<!-- Generator: Adobe Illustrator 21.0.0, SVG Export Plug-In . SVG Version: 6.00 Build 0)  -->
<svg version="1.1" id="图层_1" xmlns="http://www.w3.org/2000/svg" xmlns:xlink="http://www.w3.org/1999/xlink" x="0px" y="0px"
	 viewBox="0 0 200 200" style="enable-background:new 0 0 200 200;" xml:space="preserve">
<style type="text/css">
	.st0{fill:#737987;}
	.st1{fill:#666666;}
</style>
<path class="st0" d="M-162.1,74.3"/>
<path class="st1" d="M117.8,158.7c-2.2-4.5-6-8-10.7-9.7v-17.9h63.4c7.8,0,14.1-6.3,14.1-14.1V32.3c0-7.8-6.3-14.1-14.1-14.1H29.6
	c-7.8,0-14.1,6.3-14.1,14.1V117c0,7.8,6.3,14.1,14.1,14.1H93V149c-4.7,1.8-8.5,5.3-10.7,9.7H0v15h81.3c2.6,7.8,10,13.5,18.8,13.5
	c8.7,0,16.1-5.7,18.8-13.5H200v-15H117.8z M29.8,39.7c0-4.8,2.7-7.7,7.4-7.7H163c4.8,0,7.6,2.9,7.6,7.6v36.9H29.8V39.7z M37.2,116.8
	L37.2,116.8c-4.7,0-7.6-2.6-7.6-7.3V91h140.9v18.4c0,4.7-3,7.5-7.9,7.5C139.6,116.8,71.9,116.8,37.2,116.8L37.2,116.8z M100,174.4
	c-3.9,0-7-3.1-7-7c0-3.9,3.1-7,7-7c3.9,0,7,3.1,7,7C107,171.3,103.9,174.4,100,174.4L100,174.4z M100,174.4"/>
</svg>
