<?xml version="1.0" encoding="utf-8"?>
<!-- Generator: Adobe Illustrator 21.0.0, SVG Export Plug-In . SVG Version: 6.00 Build 0)  -->
<svg version="1.1" id="图层_1" xmlns="http://www.w3.org/2000/svg" xmlns:xlink="http://www.w3.org/1999/xlink" x="0px" y="0px"
	 viewBox="0 0 200 200" style="enable-background:new 0 0 200 200;" xml:space="preserve">
<style type="text/css">
	.st0{fill:#737987;}
	.st1{fill:#0090f4;}
</style>
<path class="st0" d="M-160.5,76.6"/>
<g>
	<path class="st1" d="M147.2,46.6c0,3.7,3,6.7,6.7,6.7c3.7,0,6.7-3,6.7-6.7c0-3.7-3-6.7-6.7-6.7C150.3,39.9,147.2,42.9,147.2,46.6
		L147.2,46.6z M147.2,46.6"/>
	<path class="st1" d="M147.2,100.5c0,3.7,3,6.7,6.7,6.7c3.7,0,6.7-3,6.7-6.7c0-3.7-3-6.7-6.7-6.7C150.3,93.7,147.2,96.7,147.2,100.5
		L147.2,100.5z M147.2,100.5"/>
	<path class="st1" d="M147.3,154.6c0,3.7,3,6.7,6.7,6.7c3.7,0,6.7-3,6.7-6.7c0-3.7-3-6.7-6.7-6.7
		C150.3,147.8,147.3,150.9,147.3,154.6L147.3,154.6z M147.3,154.6"/>
	<path class="st1" d="M175.9,12.9H24.1c-6.5,0-11.8,6.1-11.8,13.5v148.4c0,7.4,5.3,13.5,11.8,13.5h151.8c6.5,0,11.8-6.1,11.8-13.5
		V26.4C187.7,19,182.4,12.9,175.9,12.9L175.9,12.9z M25.8,80.4h148.4v40.5H25.8V80.4z M31.6,26.4h136.9c3.2,0,5.8,3,5.8,6.7v33.7
		H25.8V33.1C25.8,29.4,28.4,26.4,31.6,26.4L31.6,26.4z M168.4,174.8H31.6c-3.2,0-5.8-3-5.8-6.7v-33.7h148.4v33.7
		C174.2,171.8,171.6,174.8,168.4,174.8L168.4,174.8z M168.4,174.8"/>
</g>
</svg>
