<?xml version="1.0" encoding="utf-8"?>
<!-- Generator: Adobe Illustrator 21.0.0, SVG Export Plug-In . SVG Version: 6.00 Build 0)  -->
<svg version="1.1" id="图层_1" xmlns="http://www.w3.org/2000/svg" xmlns:xlink="http://www.w3.org/1999/xlink" x="0px" y="0px"
	 viewBox="0 0 200 200" style="enable-background:new 0 0 200 200;" xml:space="preserve">
<style type="text/css">
	.st1{fill:#666666;}
</style>

<g>
	<path class="st1" d="M33.3,172.4c-3.7,0-6.7,3.1-6.7,6.9c0,3.8,3,6.9,6.7,6.9h133.3c3.7,0,6.7-3.1,6.7-6.9c0-3.8-3-6.9-6.7-6.9
		H33.3z M33.3,158.6h133.3c11,0,20,9.3,20,20.7c0,11.4-9,20.7-20,20.7H33.3c-11,0-20-9.3-20-20.7C13.3,167.9,22.3,158.6,33.3,158.6
		L33.3,158.6z M33.3,158.6"/>
	<path class="st1" d="M153.3,37.9c0,5.7,4.5,10.3,10,10.3c5.5,0,10-4.6,10-10.3c0-5.7-4.5-10.3-10-10.3
		C157.8,27.6,153.3,32.2,153.3,37.9L153.3,37.9z M153.3,37.9"/>
	<path class="st1" d="M26.7,37.9c0,5.7,4.5,10.3,10,10.3s10-4.6,10-10.3c0-5.7-4.5-10.3-10-10.3S26.7,32.2,26.7,37.9L26.7,37.9z
		 M26.7,37.9"/>
	<path class="st1" d="M93.3,124.1c0-3.8,3-6.9,6.7-6.9c3.7,0,6.7,3.1,6.7,6.9v34.5c0,3.8-3,6.9-6.7,6.9c-3.7,0-6.7-3.1-6.7-6.9
		V124.1z M93.3,124.1"/>
	<path class="st1" d="M100,131c-12.9,0-23.3-10.8-23.3-24.1c0-13.3,10.4-24.1,23.3-24.1s23.3,10.8,23.3,24.1
		C123.3,120.2,112.9,131,100,131L100,131z M100,117.2c5.5,0,10-4.6,10-10.3c0-5.7-4.5-10.3-10-10.3c-5.5,0-10,4.6-10,10.3
		C90,112.6,94.5,117.2,100,117.2L100,117.2z M173.3,96.6c-3.7,0-6.7-3.1-6.7-6.9c0-3.8,3-6.9,6.7-6.9h20c3.7,0,6.7,3.1,6.7,6.9
		c0,3.8-3,6.9-6.7,6.9H173.3z M6.7,96.6C3,96.6,0,93.5,0,89.7c0-3.8,3-6.9,6.7-6.9h20c3.7,0,6.7,3.1,6.7,6.9c0,3.8-3,6.9-6.7,6.9
		H6.7z M93.3,6.9c0-3.8,3-6.9,6.7-6.9c3.7,0,6.7,3.1,6.7,6.9v20.7c0,3.8-3,6.9-6.7,6.9c-3.7,0-6.7-3.1-6.7-6.9V6.9z M93.3,6.9"/>
	<path class="st1" d="M50.1,165.5H36.8v-62.1c0-36.2,28.4-65.5,63.3-65.5c35,0,63.3,29.3,63.3,65.5v62.1h-13.3v-62.1
		c0-28.6-22.4-51.7-50-51.7s-50,23.2-50,51.7V165.5z M50.1,165.5"/>
</g>
</svg>
