<?xml version="1.0" encoding="utf-8"?>
<!-- Generator: Adobe Illustrator 21.0.0, SVG Export Plug-In . SVG Version: 6.00 Build 0)  -->
<svg version="1.1" id="图层_1" xmlns="http://www.w3.org/2000/svg" xmlns:xlink="http://www.w3.org/1999/xlink" x="0px" y="0px"
	 viewBox="0 0 200 200" style="enable-background:new 0 0 200 200;" xml:space="preserve">
<style type="text/css">
	.st0{clip-path:url(#SVGID_2_);}
	.st1{fill:#666666;}
</style>
<g>
	<defs>
		<rect id="SVGID_1_" x="-345.9" y="164" width="200.3" height="200"/>
	</defs>
	<clipPath id="SVGID_2_">
		<use xlink:href="#SVGID_1_"  style="overflow:visible;"/>
	</clipPath>
	<path class="st0" d="M-323.3,182.7c-4.2,0-7.5,3.4-7.5,7.5v45.2c0,4.2,3.4,7.5,7.5,7.5h45.2c4.2,0,7.5-3.4,7.5-7.5v-45.2
		c0-4.2-3.4-7.5-7.5-7.5H-323.3z M-323.3,167.7h45.2c12.5,0,22.6,10.1,22.6,22.6v45.2c0,12.5-10.1,22.6-22.6,22.6h-45.2
		c-12.5,0-22.6-10.1-22.6-22.6v-45.2C-346,177.8-335.8,167.7-323.3,167.7L-323.3,167.7z M-323.3,288.3c-4.2,0-7.5,3.4-7.5,7.5v45.2
		c0,4.2,3.4,7.5,7.5,7.5h45.2c4.2,0,7.5-3.4,7.5-7.5v-45.2c0-4.2-3.4-7.5-7.5-7.5H-323.3z M-323.3,273.2h45.2
		c12.5,0,22.6,10.1,22.6,22.6v45.2c0,12.5-10.1,22.6-22.6,22.6h-45.2c-12.5,0-22.6-10.1-22.6-22.6v-45.2
		C-346,283.4-335.8,273.2-323.3,273.2L-323.3,273.2z M-217.8,288.3c-4.2,0-7.5,3.4-7.5,7.5v45.2c0,4.2,3.4,7.5,7.5,7.5h45.2
		c4.2,0,7.5-3.4,7.5-7.5v-45.2c0-4.2-3.4-7.5-7.5-7.5H-217.8z M-217.8,273.2h45.2c12.5,0,22.6,10.1,22.6,22.6v45.2
		c0,12.5-10.1,22.6-22.6,22.6h-45.2c-12.5,0-22.6-10.1-22.6-22.6v-45.2C-240.4,283.4-230.3,273.2-217.8,273.2L-217.8,273.2z
		 M-226.7,207.8c-1.4,1.4-2.2,3.3-2.2,5.3c0,2,0.8,3.9,2.2,5.3l26.4,26.4c1.4,1.4,3.3,2.2,5.3,2.2c2,0,3.9-0.8,5.3-2.2l26.4-26.4
		c1.4-1.4,2.2-3.3,2.2-5.3c0-2-0.8-3.9-2.2-5.3l-26.4-26.4c-1.4-1.4-3.3-2.2-5.3-2.2c-2,0-3.9,0.8-5.3,2.2L-226.7,207.8z
		 M-237.3,197.1l26.4-26.4c4.2-4.2,10-6.6,16-6.6c6,0,11.8,2.4,16,6.6l26.4,26.4c4.2,4.2,6.6,10,6.6,16c0,6-2.4,11.8-6.6,16
		l-26.4,26.4c-4.2,4.2-10,6.6-16,6.6c-6,0-11.8-2.4-16-6.6l-26.4-26.4c-4.2-4.2-6.6-10-6.6-16C-244,207.1-241.6,201.4-237.3,197.1
		L-237.3,197.1z M-237.3,197.1"/>
</g>
<image style="overflow:visible;" width="18" height="18" xlink:href="CAD579A9.jpg"  transform="matrix(0.9999 0 0 0.9999 -626.9989 -31)">
</image>
<image style="overflow:visible;" width="18" height="18" xlink:href="CAD579AA.jpg"  transform="matrix(0.9999 0 0 0.9999 -490.9989 72)">
</image>
<image style="overflow:visible;" width="18" height="18" xlink:href="CAD579A8.jpg"  transform="matrix(0.9999 0 0 0.9999 -630.9989 89)">
</image>
<image style="overflow:visible;" width="18" height="18" xlink:href="CAD579A4.jpg"  transform="matrix(0.9999 0 0 0.9999 -564.9989 20)">
</image>
<image style="overflow:visible;" width="18" height="18" xlink:href="CAD579A5.jpg"  transform="matrix(0.9999 0 0 0.9999 -552 151)">
</image>
<image style="overflow:visible;" width="18" height="18" xlink:href="CAD579A6.jpg"  transform="matrix(0.9999 0 0 0.9999 -468 -31)">
</image>
<image style="overflow:visible;" width="24" height="24" xlink:href="CAD579A7.jpg"  transform="matrix(0.9999 0 0 0.9999 -211.0007 -31)">
</image>
<g>
	<path class="st1" d="M171.4,128.6c-5,0-9.6,1.4-13.6,3.6l-31-22.8c1-3,1.7-6.1,1.7-9.4c0-1-0.2-1.9-0.3-2.9l28.6-17.2
		c3.9,3.7,9.1,5.8,14.6,5.8c11.8,0,21.4-9.6,21.4-21.4c0-11.8-9.6-21.4-21.4-21.4c-11.8,0-21.4,9.6-21.4,21.4c0,1,0.2,2,0.3,2.9
		l-27.1,16.2c-3.9-5.4-9.6-9.3-16.1-11V56.1c12.3-3.2,21.4-14.3,21.4-27.6C128.6,12.8,115.8,0,100,0C84.2,0,71.4,12.8,71.4,28.6
		c0,13.3,9.1,24.4,21.4,27.6v16.3c-7,1.8-13,6.2-16.9,12.2L49.5,68.8c1.9-8.9-2-18-9.7-22.8c-7.7-4.8-17.6-4.1-24.7,1.6
		C8,53.3,5.3,62.9,8.4,71.4c3,8.6,11.1,14.3,20.2,14.3c4.9,0,9.6-1.7,13.4-4.8l29.6,17.8c0,0.4-0.1,0.9-0.1,1.3
		c0,3.3,0.7,6.5,1.7,9.4l-30.6,23c-4.2-2.5-9.1-3.8-14-3.8C12.8,128.6,0,141.4,0,157.1c0,15.8,12.8,28.6,28.6,28.6
		c15.8,0,28.6-12.8,28.6-28.6c0-5.4-1.6-10.4-4.2-14.7l28.2-21.1c3.4,3,7.4,5.1,11.7,6.3v30.9c-8.5,3-14.3,11.1-14.3,20.1
		c0,11.8,9.6,21.4,21.4,21.4c11.8,0,21.4-9.6,21.4-21.4c0-9.1-5.7-17.1-14.3-20.1v-30.9c4.4-1.1,8.4-3.3,11.7-6.3l28.3,20.9
		c-2.8,4.5-4.3,9.7-4.4,15c0,15.8,12.8,28.6,28.6,28.6c15.8,0,28.6-12.8,28.6-28.6C200,141.4,187.2,128.6,171.4,128.6L171.4,128.6z
		 M85.7,28.6c0-7.9,6.4-14.3,14.3-14.3c7.9,0,14.3,6.4,14.3,14.3c0,7.9-6.4,14.3-14.3,14.3C92.1,42.9,85.7,36.4,85.7,28.6L85.7,28.6
		z M28.6,171.4c-7.9,0-14.3-6.4-14.3-14.3c0-7.9,6.4-14.3,14.3-14.3c7.9,0,14.3,6.4,14.3,14.3C42.9,165,36.5,171.4,28.6,171.4
		L28.6,171.4z M100,114.3c-7.9,0-14.3-6.4-14.3-14.3c0-7.9,6.4-14.3,14.3-14.3c7.9,0,14.3,6.4,14.3,14.3
		C114.3,107.9,107.9,114.3,100,114.3L100,114.3z M171.4,171.4c-7.9,0-14.3-6.4-14.3-14.3c0-7.9,6.4-14.3,14.3-14.3
		c7.9,0,14.3,6.4,14.3,14.3C185.7,165,179.3,171.4,171.4,171.4L171.4,171.4z M171.4,171.4"/>
</g>
</svg>
