<?xml version="1.0" encoding="utf-8"?>
<!-- Generator: Adobe Illustrator 21.0.0, SVG Export Plug-In . SVG Version: 6.00 Build 0)  -->
<svg version="1.1" id="图层_1" xmlns="http://www.w3.org/2000/svg" xmlns:xlink="http://www.w3.org/1999/xlink" x="0px" y="0px"
	 viewBox="0 0 200 200" style="enable-background:new 0 0 200 200;" xml:space="preserve">
<style type="text/css">
	.st0{clip-path:url(#SVGID_2_);}
	.st1{fill:#0090f4;}
</style>
<path class="st1" d="M197.2,140c-5.9-11.6-18.9-16.9-30.6-12.6l-27.5-59.8c3.1-3.1,5.5-7.2,6.7-12c3.2-12.5-2.6-25.7-13.4-30.7
	c-10.8-5-23.4-0.4-29.3,10.9c-5.9,11.3-3.3,25.6,6.1,33.4l-29.1,57.1c-3-0.5-6-0.3-8.8,0.4L40.4,68.8c9.9-7.9,12.4-22.4,6-33.5
	c-6.6-11.2-20-15.6-31.4-10.4C3.5,29.9-2.5,43.2,1,55.8C4.5,68.2,16.4,76,28.8,74l31.6,59.1c-2.9,3.1-5.1,7-6.2,11.5
	c-3.2,12.5,2.6,25.7,13.4,30.7c10.8,5,23.4,0.4,29.3-10.9c5.9-11.3,3.3-25.6-6.1-33.4l29.1-57.1c2.7,0.5,5.4,0.4,8-0.2l28.1,61.1
	c-8.1,9.8-7.9,24.5,0.5,34c8.4,9.6,22.4,11.3,32.7,4C199.4,165.7,202.9,151.5,197.2,140z M35.8,55c-2.3,4-6.4,6.5-10.8,6.4
	c-6.9,0-12.5-5.8-12.5-12.9c0.1-7.2,5.7-13,12.5-12.9c4.4,0,8.5,2.4,10.8,6.4C38,46.1,38,51,35.8,55z M86.7,158.1
	c-2,3.9-5.9,6.4-10.1,6.4c-6.4,0-11.7-5.8-11.7-12.9c0-7.1,5.2-12.9,11.7-12.9c4.2,0,8.1,2.5,10.1,6.4
	C88.8,149.3,88.8,154.1,86.7,158.1z M111.6,48.6c0-7.1,5.2-12.9,11.7-12.9c4.2,0,8.1,2.5,10.1,6.4c2.1,4,2.1,8.9,0,12.9
	c-2,3.9-5.9,6.4-10.1,6.4C116.9,61.4,111.6,55.7,111.6,48.6z M185.8,158.1c-2.3,4-6.4,6.5-10.8,6.5c-6.9,0-12.5-5.8-12.5-12.9
	c0-3.5,1.4-6.8,3.7-9.2c2.3-2.4,5.5-3.8,8.8-3.7c4.4,0,8.6,2.4,10.8,6.5C188,149.2,188,154.2,185.8,158.1z"/>
</svg>
