<?xml version="1.0" encoding="utf-8"?>
<!-- Generator: Adobe Illustrator 21.0.0, SVG Export Plug-In . SVG Version: 6.00 Build 0)  -->
<svg version="1.1" id="图层_1" xmlns="http://www.w3.org/2000/svg" xmlns:xlink="http://www.w3.org/1999/xlink" x="0px" y="0px"
	 viewBox="0 0 200 200" style="enable-background:new 0 0 200 200;" xml:space="preserve">
<style type="text/css">
	.st0{fill:#666666;}
</style>
<path class="st0" d="M22.6,18.7c-4.2,0-7.5,3.4-7.5,7.5v45.2c0,4.2,3.4,7.5,7.5,7.5h45.2c4.2,0,7.5-3.4,7.5-7.5V26.3
	c0-4.2-3.4-7.5-7.5-7.5L22.6,18.7L22.6,18.7z M22.6,3.7h45.2c12.5,0,22.6,10.1,22.6,22.6v45.2c0,12.5-10.1,22.6-22.6,22.6H22.6
	C10.1,94.1,0,84,0,71.5V26.3C0,13.8,10.1,3.7,22.6,3.7L22.6,3.7z M22.6,124.3c-4.2,0-7.5,3.4-7.5,7.5V177c0,4.2,3.4,7.5,7.5,7.5
	h45.2c4.2,0,7.5-3.4,7.5-7.5v-45.2c0-4.2-3.4-7.5-7.5-7.5H22.6z M22.6,109.2h45.2c12.5,0,22.6,10.1,22.6,22.6V177
	c0,12.5-10.1,22.6-22.6,22.6H22.6C10.1,199.7,0,189.6,0,177.1v-45.2C0,119.4,10.1,109.2,22.6,109.2L22.6,109.2z M128.2,124.3
	c-4.2,0-7.5,3.4-7.5,7.5V177c0,4.2,3.4,7.5,7.5,7.5h45.2c4.2,0,7.5-3.4,7.5-7.5v-45.2c0-4.2-3.4-7.5-7.5-7.5H128.2z M128.2,109.2
	h45.2c12.5,0,22.6,10.1,22.6,22.6V177c0,12.5-10.1,22.6-22.6,22.6h-45.2c-12.5,0-22.6-10.1-22.6-22.6v-45.2
	C105.5,119.4,115.7,109.2,128.2,109.2L128.2,109.2z M119.3,43.8c-1.4,1.4-2.2,3.3-2.2,5.3s0.8,3.9,2.2,5.3l26.4,26.4
	c1.4,1.4,3.3,2.2,5.3,2.2s3.9-0.8,5.3-2.2l26.4-26.4c1.4-1.4,2.2-3.3,2.2-5.3s-0.8-3.9-2.2-5.3l-26.4-26.4c-1.4-1.4-3.3-2.2-5.3-2.2
	s-3.9,0.8-5.3,2.2L119.3,43.8z M108.6,33.1L135,6.7c4.2-4.2,10-6.6,16-6.6s11.8,2.4,16,6.6l26.4,26.4c4.2,4.2,6.6,10,6.6,16
	s-2.4,11.8-6.6,16L167,91.5c-4.2,4.2-10,6.6-16,6.6s-11.8-2.4-16-6.6l-26.4-26.4c-4.2-4.2-6.6-10-6.6-16S104.4,37.4,108.6,33.1
	L108.6,33.1z"/>
</svg>
