<?xml version="1.0" encoding="utf-8"?>
<!-- Generator: Adobe Illustrator 21.0.0, SVG Export Plug-In . SVG Version: 6.00 Build 0)  -->
<svg version="1.1" id="图层_1" xmlns="http://www.w3.org/2000/svg" xmlns:xlink="http://www.w3.org/1999/xlink" x="0px" y="0px"
	 viewBox="0 0 200 200" style="enable-background:new 0 0 200 200;" xml:space="preserve">
<style type="text/css">
	.st0{fill:#0090f4;}
</style>
<g>
	<path class="st0" d="M179.7,7H20.3C13,7,7,13,7,20.3v159.4C7,187,13,193,20.3,193h122.9c3.7,0,6.6-3,6.6-6.6c0-3.7-3-6.6-6.6-6.6
		H20.3V20.3h159.4v122.9c0,3.7,3,6.6,6.6,6.6c3.7,0,6.6-3,6.6-6.6V20.3C193,13,187,7,179.7,7L179.7,7z M179.7,7"/>
	<path class="st0" d="M158.1,148.7c5.4-7.4,8.4-16.3,8.4-25.4c0-23.8-19.4-43.2-43.2-43.2s-43.2,19.4-43.2,43.2s19.4,43.2,43.2,43.2
		c9.2,0,18.1-2.9,25.4-8.4l23,23c1.2,1.3,2.9,2,4.7,2c1.8,0,3.5-0.7,4.7-2c1.2-1.2,1.9-2.9,1.9-4.7c0-1.8-0.7-3.5-1.9-4.7
		L158.1,148.7z M93.4,123.2c0-16.5,13.4-29.9,29.9-29.9s29.9,13.4,29.9,29.9s-13.4,29.9-29.9,29.9S93.4,139.7,93.4,123.2L93.4,123.2
		z M159.8,48.5c0-3.7-3-6.6-6.6-6.6H46.9c-3.7,0-6.6,3-6.6,6.6c0,3.7,3,6.6,6.6,6.6h106.3C156.8,55.2,159.8,52.2,159.8,48.5
		L159.8,48.5z M46.9,81.5c-3.7,0-6.6,3-6.6,6.6c0,3.7,3,6.6,6.6,6.6h19.9c3.7,0,6.6-3,6.6-6.6c0-3.7-3-6.6-6.6-6.6H46.9z M46.9,81.5
		"/>
</g>
</svg>
