<?xml version="1.0" encoding="utf-8"?>
<!-- Generator: Adobe Illustrator 21.0.0, SVG Export Plug-In . SVG Version: 6.00 Build 0)  -->
<svg version="1.1" id="图层_1" xmlns="http://www.w3.org/2000/svg" xmlns:xlink="http://www.w3.org/1999/xlink" x="0px" y="0px"
	 viewBox="0 0 200 200" style="enable-background:new 0 0 200 200;" xml:space="preserve">
<style type="text/css">
	.st1{fill:#0090f4;}
</style>

<g>
	<path class="st1" d="M100,109.8c5.4,0,9.8-4.4,9.8-9.8c0-3.5-1.9-6.8-4.9-8.5c-3-1.8-6.8-1.8-9.8,0c-3,1.8-4.9,5-4.9,8.5
		C90.1,105.4,94.6,109.8,100,109.8z"/>
	<path class="st1" d="M187.6,51.9L187.6,51.9c-17.3-31.4-50.1-51.2-86-51.8c-2,0-3.9,0.7-5.3,2.1c-1.4,1.4-2.2,3.3-2.2,5.3v23.9
		c0,4.1,3.3,7.4,7.4,7.4c4.1,0,7.4-3.3,7.4-7.4v-16c35,3.7,64.2,28.5,73.3,62.5c9.2,34-3.6,70.1-32,90.9
		c-28.5,20.8-66.7,21.8-96.3,2.7C24.2,152.4,9.5,117,16.7,82.6c0.8-4-1.7-7.9-5.7-8.7c-4-0.8-7.9,1.7-8.7,5.7
		c-9.1,43.3,11.5,87.4,50.4,108.4c39,21,87.1,13.8,118.3-17.6C202.1,138.9,208.8,90.7,187.6,51.9z"/>
	<path class="st1" d="M56.8,115.6c5.6,14.3,17.6,25.1,32.5,29.1c3.9,1,7.9,1.6,12,1.6c10.1,0,19.9-3.4,27.7-9.8
		c1.3-1,2.5-2.1,3.7-3.3l0,0c1.2-1.2,2.3-2.4,3.3-3.6c9-11.1,12.1-25.9,8.3-39.6c-4-14.9-14.8-26.9-29.1-32.5L35.9,27
		c-2.7-1.1-5.8-0.4-7.9,1.7c-2.1,2.1-2.7,5.2-1.7,7.9L56.8,115.6z M109.8,71.2c9.9,3.9,17.4,12.2,20.1,22.5
		c2.6,9.2,0.6,19.1-5.5,26.5c-0.7,0.9-1.5,1.7-2.3,2.5c-0.8,0.8-1.7,1.6-2.5,2.3c-7.4,6-17.3,8-26.5,5.4
		c-10.3-2.7-18.6-10.2-22.5-20.1L46.1,46.7L109.8,71.2z"/>
</g>
</svg>
