<?xml version="1.0" encoding="utf-8"?>
<!-- Generator: Adobe Illustrator 21.0.0, SVG Export Plug-In . SVG Version: 6.00 Build 0)  -->
<svg version="1.1" id="图层_1" xmlns="http://www.w3.org/2000/svg" xmlns:xlink="http://www.w3.org/1999/xlink" x="0px" y="0px" width="136px" height="60px"
	 viewBox="0 315 1024 410" style="enable-background:new 0 315 1024 410;" xml:space="preserve">
<style type="text/css">
	.st0{fill:url(#SVGID_1_);}
	.st1{fill:url(#SVGID_2_);}
	.st2{fill:url(#SVGID_3_);}
	.st3{fill:url(#SVGID_4_);}
	.st4{fill:url(#SVGID_5_);}
	.st5{fill:url(#SVGID_6_);}
	.st6{fill:url(#SVGID_7_);}
	.st7{fill:#0090F4;}
</style>
<g>
	<linearGradient id="SVGID_1_" gradientUnits="userSpaceOnUse" x1="-4.312" y1="553.2827" x2="330.0481" y2="553.2827">
		<stop  offset="0" style="stop-color:#2D83C6"/>
		<stop  offset="1" style="stop-color:#21B9E3"/>
	</linearGradient>
	<path class="st0" d="M14.7,507.4c-8.3,0-15,6.7-15,15v61.8c0,8.3,6.7,15,15,15s15-6.7,15-15v-61.8
		C29.6,514.1,22.9,507.4,14.7,507.4z"/>
	<linearGradient id="SVGID_2_" gradientUnits="userSpaceOnUse" x1="-4.312" y1="539.8461" x2="330.0481" y2="539.8461">
		<stop  offset="0" style="stop-color:#2D83C6"/>
		<stop  offset="1" style="stop-color:#21B9E3"/>
	</linearGradient>
	<path class="st1" d="M65.8,449.9c-8.3,0-15,6.7-15,15v149.9c0,8.3,6.7,15,15,15c8.3,0,15-6.7,15-15V464.9
		C80.8,456.6,74.1,449.9,65.8,449.9z"/>
	<linearGradient id="SVGID_3_" gradientUnits="userSpaceOnUse" x1="-4.312" y1="503.4597" x2="330.0481" y2="503.4597">
		<stop  offset="0" style="stop-color:#2D83C6"/>
		<stop  offset="1" style="stop-color:#21B9E3"/>
	</linearGradient>
	<path class="st2" d="M117,393.9c-8.3,0-15,6.7-15,15v189.3c0,8.3,6.7,15,15,15s15-6.7,15-15V408.8
		C131.9,400.6,125.2,393.9,117,393.9z"/>
	<linearGradient id="SVGID_4_" gradientUnits="userSpaceOnUse" x1="-4.312" y1="495.7197" x2="330.0481" y2="495.7197">
		<stop  offset="0" style="stop-color:#2D83C6"/>
		<stop  offset="1" style="stop-color:#21B9E3"/>
	</linearGradient>
	<path class="st3" d="M168.2,383.3c-8.3,0-15,6.7-15,15v194.8c0,8.3,6.7,15,15,15c8.3,0,15-6.7,15-15V398.3
		C183.1,390,176.4,383.3,168.2,383.3z"/>
	<linearGradient id="SVGID_5_" gradientUnits="userSpaceOnUse" x1="-4.312" y1="505.2114" x2="330.0481" y2="505.2114">
		<stop  offset="0" style="stop-color:#2D83C6"/>
		<stop  offset="1" style="stop-color:#21B9E3"/>
	</linearGradient>
	<path class="st4" d="M219.3,402.3c-8.3,0-15,6.7-15,15v175.9c0,8.3,6.7,15,15,15c8.3,0,15-6.7,15-15V417.3
		C234.3,409,227.6,402.3,219.3,402.3z"/>
	<linearGradient id="SVGID_6_" gradientUnits="userSpaceOnUse" x1="-4.312" y1="521.8896" x2="330.0481" y2="521.8896">
		<stop  offset="0" style="stop-color:#2D83C6"/>
		<stop  offset="1" style="stop-color:#21B9E3"/>
	</linearGradient>
	<path class="st5" d="M270.5,441.8c-8.3,0-15,6.7-15,15v130.4c0,8.3,6.7,15,15,15c8.3,0,15-6.7,15-15V456.7
		C285.4,448.5,278.7,441.8,270.5,441.8z"/>
	<linearGradient id="SVGID_7_" gradientUnits="userSpaceOnUse" x1="-4.312" y1="530.0506" x2="330.0481" y2="530.0506">
		<stop  offset="0" style="stop-color:#2D83C6"/>
		<stop  offset="1" style="stop-color:#21B9E3"/>
	</linearGradient>
	<path class="st6" d="M321.6,489.4c-8.3,0-15,6.7-15,15v51.4c0,8.3,6.7,15,15,15c8.3,0,15-6.7,15-15v-51.4
		C336.6,496.1,329.9,489.4,321.6,489.4z"/>
</g>
<g>
	<path class="st7" d="M427,581.4h-20.1V406.7h21.4v62.8c8.8-11.3,20.1-17.6,33.9-17.6c7.5,0,15.1,1.3,21.4,5
		c7.5,3.8,12.6,7.5,17.6,13.8c5,6.3,7.5,12.6,10.1,20.1c2.5,7.5,3.8,16.3,3.8,26.4c0,21.4-5,39-16.3,50.3
		c-11.3,11.3-23.9,17.6-39,17.6c-15.1,0-26.4-6.3-35.2-18.9L427,581.4L427,581.4z M427,517.3c0,15.1,2.5,26.4,6.3,32.7
		c6.3,11.3,16.3,16.3,27.7,16.3c8.8,0,17.6-3.8,23.9-12.6c6.3-7.5,10.1-20.1,10.1-36.4s-3.8-28.9-10.1-36.4s-13.8-11.3-23.9-11.3
		c-8.8,0-17.6,3.8-23.9,12.6C430.8,490.9,427,502.3,427,517.3z"/>
	<path class="st7" d="M542.6,581.4V406.7H564v174.7H542.6z"/>
	<path class="st7" d="M587.9,518.6c0-23.9,6.3-41.5,18.9-51.5c11.3-8.8,23.9-13.8,40.2-13.8c17.6,0,31.4,6.3,42.7,17.6
		c11.3,11.3,16.3,27.7,16.3,47.8c0,16.3-2.5,28.9-7.5,39c-5,8.8-12.6,16.3-21.4,21.4c-8.8,5-20.1,7.5-30.2,7.5
		c-17.6,0-31.4-6.3-42.7-17.6C594.2,556.3,587.9,540,587.9,518.6z M610.5,518.6c0,16.3,3.8,28.9,10.1,36.4
		c7.5,7.5,16.3,12.6,26.4,12.6s18.9-3.8,26.4-12.6c7.5-7.5,10.1-20.1,10.1-37.7c0-15.1-3.8-27.7-10.1-35.2
		c-7.5-7.5-16.3-12.6-26.4-12.6c-11.3,0-20.1,3.8-26.4,12.6C614.3,489.7,610.5,502.3,610.5,518.6z"/>
	<path class="st7" d="M727.4,592.8l21.4,2.5c1.3,6.3,3.8,11.3,7.5,13.8c5,3.8,12.6,6.3,21.4,6.3c10.1,0,17.6-2.5,22.6-6.3
		c5-3.8,8.8-10.1,11.3-16.3c1.3-3.8,1.3-13.8,1.3-27.7c-8.8,11.3-21.4,16.3-35.2,16.3c-17.6,0-30.2-6.3-40.2-18.9
		c-10.1-12.6-13.8-27.7-13.8-45.2c0-12.6,2.5-23.9,6.3-33.9c3.8-10.1,10.1-17.6,18.9-23.9c8.8-5,17.6-8.8,28.9-8.8
		c15.1,0,27.7,6.3,36.4,17.6v-15.1h20.1v111.9c0,20.1-2.5,33.9-6.3,41.5c-3.8,8.8-10.1,15.1-18.9,20.1c-8.8,5-18.9,7.5-31.4,7.5
		c-15.1,0-27.7-3.8-36.4-10.1C731.2,616.6,727.4,606.6,727.4,592.8z M745,516.1c0,16.3,3.8,28.9,10.1,36.4s15.1,11.3,25.1,11.3
		c10.1,0,17.6-3.8,25.1-11.3c6.3-7.5,10.1-20.1,10.1-35.2s-3.8-27.7-10.1-35.2c-6.3-7.5-15.1-11.3-25.1-11.3
		c-10.1,0-17.6,3.8-23.9,11.3C748.8,489.7,745,501,745,516.1z"/>
	<path class="st7" d="M866.9,431.9v-25.1h21.4v25.1H866.9L866.9,431.9z M866.9,581.4V455.8h21.4v126.9h-21.4V581.4z"/>
	<path class="st7" d="M1002.6,534.9l21.4,2.5c-2.5,15.1-7.5,26.4-17.6,33.9c-10.1,8.8-21.4,12.6-35.2,12.6
		c-17.6,0-31.4-6.3-41.5-17.6c-10.1-10.1-16.3-26.4-16.3-47.8c0-13.8,2.5-25.1,6.3-36.4c5-10.1,11.3-17.6,20.1-22.6
		s18.9-7.5,30.2-7.5c13.8,0,25.1,3.8,33.9,10.1c8.8,7.5,13.8,16.3,16.3,30.2l-18.9,3.8c-2.5-8.8-5-15.1-10.1-18.9
		c-5-3.8-11.3-6.3-17.6-6.3c-11.3,0-20.1,3.8-26.4,11.3s-10.1,20.1-10.1,36.4c0,17.6,3.8,28.9,10.1,37.7
		c6.3,7.5,15.1,11.3,25.1,11.3c8.8,0,15.1-2.5,21.4-7.5C997.6,553.8,1001.4,546.2,1002.6,534.9z"/>
</g>
</svg>
