<?xml version="1.0" encoding="utf-8"?>
<!-- Generator: Adobe Illustrator 21.0.0, SVG Export Plug-In . SVG Version: 6.00 Build 0)  -->
<svg version="1.1" id="图层_1" xmlns="http://www.w3.org/2000/svg" xmlns:xlink="http://www.w3.org/1999/xlink" x="0px" y="0px"
	 viewBox="0 0 200 200" style="enable-background:new 0 0 200 200;" xml:space="preserve">
<style type="text/css">
	.st0{fill:#0090f4;}
</style>
<g>
	<path class="st0" d="M185.3,172.1H14.5c-2.5,0-4.9,1.3-6.2,3.4c-1.3,2.1-1.3,4.7,0,6.8c1.3,2.1,3.6,3.4,6.2,3.4h170.9
		c2.5,0,4.9-1.3,6.2-3.4c1.3-2.1,1.3-4.7,0-6.8C190.2,173.4,187.9,172.1,185.3,172.1z"/>
	<path class="st0" d="M175.8,15.9H24C13.5,15.9,5,24,5,34v99.6c0,10,8.5,18.1,19,18.1h151.9c10.5,0,19-8.1,19-18.1V34
		C194.8,24,186.3,15.9,175.8,15.9z M180.6,133.6c0,1.2-0.5,2.4-1.4,3.2c-0.9,0.8-2.1,1.3-3.4,1.3H24c-1.3,0-2.5-0.5-3.4-1.3
		c-0.9-0.8-1.4-2-1.4-3.2V34c0-2.5,2.1-4.5,4.7-4.5h151.9c1.3,0,2.5,0.5,3.4,1.3c0.9,0.8,1.4,2,1.4,3.2V133.6z"/>
	<path class="st0" d="M155.6,55c-3.3-2-7.7-1-9.8,2.2l-22.6,34.9l-40-36.3c-1.5-1.4-3.6-2-5.6-1.8c-2.1,0.2-3.9,1.2-5.1,2.9
		L41.6,98.9c-2.3,3.1-1.5,7.3,1.8,9.5c3.2,2.2,7.7,1.4,9.9-1.7l26.1-35.6h0l40.4,36.6c1.6,1.4,3.7,2.1,5.8,1.8
		c2.1-0.3,4-1.4,5.1-3.2L158,64.4C160,61.2,159,57,155.6,55z"/>
</g>
</svg>
