<?xml version="1.0" encoding="utf-8"?>
<!-- Generator: Adobe Illustrator 21.0.0, SVG Export Plug-In . SVG Version: 6.00 Build 0)  -->
<svg version="1.1" id="图层_1" xmlns="http://www.w3.org/2000/svg" xmlns:xlink="http://www.w3.org/1999/xlink" x="0px" y="0px"
	 viewBox="0 0 200 200" style="enable-background:new 0 0 200 200;" xml:space="preserve">
<style type="text/css">
	.st0{fill:#333333;}
	.st1{fill:none;}
</style>
<g>
	<path class="st0" d="M81.3,173.8h-25c-11.7,0-22.7-4.6-30.9-12.8c-8.3-8.3-12.8-19.3-12.8-31s4.6-22.7,12.8-30.9
		s19.3-12.8,30.9-12.8c3.5,0,6.3-2.8,6.3-6.3V80c0-15,5.9-29.2,16.5-39.8c10.6-10.6,24.8-16.5,39.8-16.5c9,0,17.6,2.1,25.6,6.2
		c7.6,3.9,14.4,9.6,19.5,16.5c2.1,2.8,6,3.3,8.8,1.3c2.8-2.1,3.3-6,1.3-8.8c-6.3-8.4-14.5-15.4-23.8-20.1
		c-9.6-4.9-20.5-7.5-31.3-7.5c-9.3,0-18.3,1.8-26.8,5.4C83.8,20,76.5,25,70.2,31.3C63.9,37.6,58.9,45,55.4,53.2
		c-2.8,6.7-4.6,13.7-5.2,20.9c-12.8,1.3-24.6,7-33.8,16.2C5.9,100.9,0,115,0,130.1c0,15,5.9,29.2,16.5,39.8
		c10.6,10.6,24.8,16.5,39.8,16.5h25c3.5,0,6.3-2.8,6.3-6.3C87.5,176.6,84.7,173.8,81.3,173.8z"/>
	<path class="st0" d="M131,123.8c-3.5,0-6.3,2.8-6.3,6.3v50c0,3.5,2.8,6.3,6.3,6.3c3.5,0,6.3-2.8,6.3-6.3v-50
		C137.3,126.6,134.5,123.8,131,123.8z"/>
	<path class="st0" d="M106.1,148.8c-3.5,0-6.3,2.8-6.3,6.3v25c0,3.5,2.8,6.3,6.3,6.3c3.5,0,6.3-2.8,6.3-6.3v-25
		C112.3,151.6,109.6,148.8,106.1,148.8z"/>
	<path class="st0" d="M181,111.3c-3.5,0-6.3,2.8-6.3,6.3V180c0,3.5,2.8,6.3,6.3,6.3c3.5,0,6.3-2.8,6.3-6.3v-62.5
		C187.3,114,184.5,111.3,181,111.3z"/>
	<path class="st0" d="M156,136.3c-3.5,0-6.3,2.8-6.3,6.3V180c0,3.5,2.8,6.3,6.3,6.3c3.5,0,6.3-2.8,6.3-6.3v-37.5
		C162.3,139.1,159.5,136.3,156,136.3z"/>
	<path class="st0" d="M197.2,53.9c-2.8-2-6.7-1.3-8.7,1.5L154.6,103l-31.8-21.6c-2.7-1.8-6.4-1.3-8.4,1.3l-44.3,56
		c-2.1,2.7-1.7,6.6,1,8.8c1.2,0.9,2.5,1.3,3.9,1.3c1.8,0,3.7-0.8,4.9-2.4L120.6,95l32,21.8c2.8,1.9,6.6,1.2,8.6-1.5l37.5-52.7
		C200.7,59.8,200,55.9,197.2,53.9z"/>
</g>
<rect x="0" y="11" class="st1" width="200" height="175.6"/>
</svg>
