<?xml version="1.0" encoding="utf-8"?>
<!-- Generator: Adobe Illustrator 21.0.0, SVG Export Plug-In . SVG Version: 6.00 Build 0)  -->
<svg version="1.1" id="图层_1" xmlns="http://www.w3.org/2000/svg" xmlns:xlink="http://www.w3.org/1999/xlink" x="0px" y="0px"
	 viewBox="0 0 200 200" style="enable-background:new 0 0 200 200;" xml:space="preserve">
<style type="text/css">
	.st0{fill:#333333;}
</style>
<path class="st0" d="M197.9,102.9l-93.5-90.7c-2.3-2.5-6.4-2.5-8.9,0L2.7,102.1c-1.3,0.9-2.3,2.2-2.6,3.9C0,106.4,0,106.8,0,107.2
	c0,0,0,0,0,0c0,3.3,2.4,5.9,5.7,6.2c0.2,0,0.4,0,0.6,0H27v80.4c0,3.5,2.8,6.2,6.4,6.2h35.1c3.6,0,6.4-2.7,6.4-6.2v-45.1H125v45.1
	c0,3.5,2.8,6.2,6.4,6.2h35.1c3.4,0,6.4-2.7,6.4-6.2c0-3.5-2.8-6.2-6.4-6.2h-28.7v-45.1c0-3.5-2.8-6.2-6.4-6.2H68.4
	c-3.6,0-6.4,2.7-6.4,6.2v45.1H39.7v-80.4c0-3.5-2.8-6.2-6.4-6.2H21.7l78.2-75.9l78,75.9h-11.5c-3.6,0-6.4,2.7-6.4,6.2V173
	c0,3.5,2.8,6.2,6.4,6.2c3.4,0,6.4-2.7,6.4-6.2v-59.6h20.6c2.5,0,4.9-1.6,6-3.7C200.2,107.2,199.8,104.8,197.9,102.9z"/>
</svg>
