<?xml version="1.0" encoding="utf-8"?>
<!-- Generator: Adobe Illustrator 21.0.0, SVG Export Plug-In . SVG Version: 6.00 Build 0)  -->
<svg version="1.1" id="图层_1" xmlns="http://www.w3.org/2000/svg" xmlns:xlink="http://www.w3.org/1999/xlink" x="0px" y="0px"
	 viewBox="0 0 200 200" style="enable-background:new 0 0 200 200;" xml:space="preserve">
<style type="text/css">
	.st0{fill:#333333;}
</style>
<g>
	<path class="st0" d="M178.4,103.9c-9.6,0-17.4,7.1-17.4,15.9c0,6,3.7,11.2,9.1,13.9l-11.4,20.8l-38-23.2c3.3-2.9,5.5-7,5.5-11.5
		c0-8.8-7.8-15.9-17.4-15.9c-9.6,0-17.4,7.1-17.4,15.9c0,6,3.7,11.2,9.1,13.9l-12.9,23.6c-7.7,1.6-13.6,7.9-13.6,15.5
		c0,8.8,7.8,15.9,17.4,15.9s17.4-7.1,17.4-15.9c0-6-3.7-11.2-9.1-13.9l11.3-20.8l38,23.2c-3.3,2.9-5.5,7-5.5,11.5
		c0,8.8,7.8,15.9,17.4,15.9c9.6,0,17.4-7.1,17.4-15.9c0-6-3.7-11.2-9.1-13.9l12.9-23.6c7.9-1.6,13.7-7.9,13.7-15.5
		C195.8,111,188,103.9,178.4,103.9z M91.5,178.2c-3.2,0-5.8-2.4-5.8-5.3c0-2.9,2.6-5.3,5.8-5.3s5.8,2.4,5.8,5.3
		C97.3,175.8,94.7,178.2,91.5,178.2z M108.9,125.1c-3.2,0-5.8-2.4-5.8-5.3c0-2.9,2.6-5.3,5.8-5.3c3.2,0,5.8,2.4,5.8,5.3
		C114.7,122.7,112.1,125.1,108.9,125.1z M161,178.2c-3.2,0-5.8-2.4-5.8-5.3c0-2.9,2.6-5.3,5.8-5.3s5.8,2.4,5.8,5.3
		C166.8,175.8,164.2,178.2,161,178.2z M178.4,125.1c-3.2,0-5.8-2.4-5.8-5.3c0-2.9,2.6-5.3,5.8-5.3c3.2,0,5.8,2.4,5.8,5.3
		C184.2,122.7,181.6,125.1,178.4,125.1z"/>
	<path class="st0" d="M60.1,183.5H25.3c-3.2,0-5.8-2.4-5.8-5.3V29.7c0-2.9,2.6-5.3,5.8-5.3h29v5.3c0,2.9,2.6,5.3,5.8,5.3
		c3.2,0,5.8-2.4,5.8-5.3v-5.3h46.3v5.3c0,2.9,2.6,5.3,5.8,5.3s5.8-2.4,5.8-5.3v-5.3h29c3.2,0,5.8,2.4,5.8,5.3v53
		c0,2.9,2.6,5.3,5.8,5.3s5.8-2.4,5.8-5.3v-53c0-8.8-7.8-15.9-17.4-15.9h-29V8.5c0-2.9-2.6-5.3-5.8-5.3c-3.2,0-5.8,2.4-5.8,5.3v5.3
		H65.9V8.5c0-2.9-2.6-5.3-5.8-5.3c-3.2,0-5.8,2.4-5.8,5.3v5.3h-29C15.8,13.8,8,20.9,8,29.7v148.5c0,8.8,7.8,15.9,17.4,15.9h34.7
		c3.2,0,5.8-2.4,5.8-5.3C65.9,185.8,63.3,183.5,60.1,183.5z"/>
	<path class="st0" d="M135.4,72.1c0-2.9-2.6-5.3-5.8-5.3H48.5c-3.2,0-5.8,2.4-5.8,5.3c0,2.9,2.6,5.3,5.8,5.3h81.1
		C132.8,77.4,135.4,75.1,135.4,72.1z"/>
	<path class="st0" d="M77.5,135.8c0-2.9-2.6-5.3-5.8-5.3H48.5c-3.2,0-5.8,2.4-5.8,5.3s2.6,5.3,5.8,5.3h23.2
		C74.9,141.1,77.5,138.7,77.5,135.8z"/>
	<path class="st0" d="M48.5,98.6c-3.2,0-5.8,2.4-5.8,5.3c0,2.9,2.6,5.3,5.8,5.3h23.2c3.2,0,5.8-2.4,5.8-5.3c0-2.9-2.6-5.3-5.8-5.3
		H48.5z"/>
</g>
</svg>
