<?xml version="1.0" encoding="utf-8"?>
<!-- Generator: Adobe Illustrator 21.0.0, SVG Export Plug-In . SVG Version: 6.00 Build 0)  -->
<svg version="1.1" id="图层_1" xmlns="http://www.w3.org/2000/svg" xmlns:xlink="http://www.w3.org/1999/xlink" x="0px" y="0px"
	 viewBox="0 0 200 200" style="enable-background:new 0 0 200 200;" xml:space="preserve">
<style type="text/css">
	.st0{fill:#737987;}
	.st1{fill:#666666;}
</style>
<path class="st0" d="M-162.1,74.3"/>
<path class="st1" d="M51.8,188.5c-5.3,0-9.5-4.3-9.5-9.6L42,110.2c-0.8,0.2-1.7,0.3-2.5,0.3c-2.6,0-5-1-6.8-2.8L3.3,78.3
	c-3.7-3.7-3.7-9.8,0-13.5l43.2-44.2c1.9-2,4.6-3.1,7.3-3.1l21.9,0c3.9,0,7.4,2.1,9.1,5.6c1.3,2.5,5.3,8.2,15.1,8.2
	c10.5,0,13.8-4.6,14.9-7.4c1.5-3.9,5.4-6.6,9.6-6.6h21.2c2.7,0,5.3,1.1,7.2,3L197,64.8c1.8,1.8,2.8,4.2,2.8,6.7c0,2.5-1,4.9-2.8,6.7
	l-29.5,29.5c-1.8,1.8-4.2,2.8-6.7,2.8c-1,0-2-0.2-3-0.5l0.2,69c0,5.3-4.3,9.6-9.5,9.6H51.8z M143.7,174.2l-0.2-79.9
	c-0.1-2.9,1.6-5.5,4.3-6.7c0.9-0.4,1.9-0.6,2.8-0.6c1.9,0,3.8,0.8,5.1,2.1l5.1,5.1l22.7-22.7l-39.7-39.7h-16.9
	c-2.8,5.3-10.1,14-27.1,14c-15.5,0-23.3-8.7-26.6-13.9l-17.8,0L16.8,71.5l22.5,22.4l4.6-5.1l0.3-0.3c0.1-0.1,0.2-0.2,0.3-0.3
	l0.1-0.1l0.5-0.4l0.3-0.2l0.2-0.1c0.1-0.1,0.4-0.2,0.6-0.3l0.1,0c0.1,0,0.2-0.1,0.3-0.1c0.1,0,0.2-0.1,0.3-0.1l0.4-0.1l0.3-0.1
	l0.2-0.1l0.6-0.1c0.2,0,0.5,0,0.6,0h0.5l0.1,0c0.1,0,0.3,0,0.3,0l0,0l0.1,0c0,0,0.3,0.1,0.3,0.1c0,0,0.3,0.1,0.3,0.1
	c0.3,0,0.5,0.1,0.8,0.2l0.2,0.1l0.4,0.2c0.1,0.1,0.3,0.1,0.4,0.2l0.1,0.1l0.3,0.2h0.4l1.1,1.1c0,0,0.2,0.2,0.4,0.4
	c0.1,0.1,0.3,0.3,0.4,0.5l0.1,0.1l0.4,0.6l0.1,0.1l0.2,0.3l0,0.1l0.1,0.1c0.1,0.1,0.2,0.4,0.2,0.6l0.1,0.4l0.1,0.2l0,0.2l0.1,0.2
	l0,0.5c0,0,0,0.1,0,0.2c0,0.2,0,0.5,0,0.6l0.3,80.6H143.7z"/>
</svg>
