<?xml version="1.0" encoding="utf-8"?>
<!-- Generator: Adobe Illustrator 21.0.0, SVG Export Plug-In . SVG Version: 6.00 Build 0)  -->
<svg version="1.1" id="图层_1" xmlns="http://www.w3.org/2000/svg" xmlns:xlink="http://www.w3.org/1999/xlink" x="0px" y="0px"
	 viewBox="0 0 200 200" style="enable-background:new 0 0 200 200;" xml:space="preserve">
<style type="text/css">
	.st0{fill:#666666;}
</style>
<path class="st0" d="M99.5,142.9c-2.8,0-5.7-0.3-8.5-0.9c-22-4.7-36.1-26.5-31.4-48.6c2-9.2,7.1-17.6,14.4-23.5
	c7.2-5.8,16.3-9,25.5-9c2.9,0,5.7,0.3,8.5,0.9c10.7,2.3,19.8,8.6,25.7,17.8c5.9,9.2,8,20.1,5.7,30.9c-2,9.2-7.1,17.6-14.4,23.5
	C117.8,139.7,108.7,142.9,99.5,142.9L99.5,142.9z M99.5,73.5c-13.2,0-24.8,9.5-27.6,22.5c-3.2,15.3,6.5,30.4,21.8,33.7
	c2,0.4,3.9,0.6,5.9,0.6c13.2,0,24.9-9.5,27.6-22.5c1.6-7.4,0.2-15-3.9-21.4c-4.1-6.4-10.4-10.7-17.8-12.3
	C103.4,73.7,101.4,73.5,99.5,73.5L99.5,73.5z M99.5,73.5"/>
<path class="st0" d="M100.2,199.7c-7.1,0-14.2-0.7-21.1-2.1L76,197l-15.7-34.2l-37.1,3.9l-2.1-2.4c-9.2-10.5-16-22.5-20-35.5l-1-3.1
	l21.2-27.7L0.9,71.3L2,68.1c4.8-13.6,12.5-25.9,22.8-36.5l2.1-2.2l33.4,3.5L73.8,3.5l3-0.7c7.9-1.7,15.8-2.6,23.4-2.6
	c7,0,14,0.7,20.8,2l3.1,0.6L138,32.9l35.3-3.7l2.1,2.1c9.9,10,17.4,21.7,22.3,34.7l1.2,3.3l-21.8,28.5l22.7,29.8l-1.1,3.2
	c-4.2,12.4-10.8,23.7-19.6,33.6l-2.1,2.4l-39.1-4.1l-15.9,34.6l-3.2,0.6C112.3,199.2,106.2,199.7,100.2,199.7L100.2,199.7z
	 M84.7,185.8c5.1,0.8,10.3,1.3,15.5,1.3c4.3,0,8.7-0.3,13.3-1l16.9-36.8l41.5,4.3c5.9-7.2,10.6-15.2,13.9-23.8l-24.5-32.1l23.3-30.6
	c-3.9-9.2-9.3-17.5-16.1-24.9l-38.2,4L115.5,14c-5-0.8-10.1-1.2-15.3-1.2c-5.8,0-11.7,0.6-17.7,1.7L67.9,46.4l-36.2-3.8
	C24.4,50.5,18.8,59.4,15,69.1l21.9,28.7l-23,30.1c3.3,9.2,8.1,17.8,14.4,25.5l39.6-4.1L84.7,185.8z M84.7,185.8"/>
</svg>
