<?xml version="1.0" encoding="utf-8"?>
<!-- Generator: Adobe Illustrator 21.0.0, SVG Export Plug-In . SVG Version: 6.00 Build 0)  -->
<svg version="1.1" id="图层_1" xmlns="http://www.w3.org/2000/svg" xmlns:xlink="http://www.w3.org/1999/xlink" x="0px" y="0px"
	 viewBox="0 0 200 200" style="enable-background:new 0 0 200 200;" xml:space="preserve">
<style type="text/css">
	.st0{fill:#737987;}
	.st1{fill:#666666;}
</style>
<path class="st0" d="M-162.1,74.3"/>
<path class="st1" d="M21.4,184.1c-7.7,0-14-6.4-14-14.2V37.4c0-7.8,6.3-14.2,14-14.2h156.3c7.7,0,14,6.4,14,14.2v132.5
	c0,7.8-6.3,14.2-14,14.2H21.4z M177.5,169.9c0,0,0-132.5,0-132.5h-156c0,0,0,132.5,0,132.5H177.5z"/>
<rect x="14.5" y="72.1" class="st1" width="173.1" height="14.2"/>
<rect x="36" y="47.5" class="st1" width="14.1" height="14.1"/>
<rect x="59.4" y="47.5" class="st1" width="14.1" height="14.1"/>
<rect x="82.8" y="47.5" class="st1" width="14.1" height="14.1"/>
<path class="st1" d="M80.6,60.8"/>
</svg>
