<?xml version="1.0" encoding="utf-8"?>
<!-- Generator: Adobe Illustrator 21.0.0, SVG Export Plug-In . SVG Version: 6.00 Build 0)  -->
<svg version="1.1" id="图层_1" xmlns="http://www.w3.org/2000/svg" xmlns:xlink="http://www.w3.org/1999/xlink" x="0px" y="0px"
	 viewBox="0 0 200 200" style="enable-background:new 0 0 200 200;" xml:space="preserve">
<style type="text/css">
	.st0{fill:#737987;}
	.st1{fill:#666666;}
</style>
<path class="st0" d="M-162.1,74.3"/>
<path class="st1" d="M0.5,170.8v-0.2c0-32.1,18.2-60.5,46.4-72.5c-12.5-9.2-19.9-24.4-19.9-40.6c0-27.4,21-49.7,46.8-49.7
	c19.4,0,37.1,13,44,32.4l0.1,0.2l-0.2,0.1c-4,1.7-7.5,3.7-10.5,6.2l-0.2,0.2l-0.1-0.3C102.4,31,89.1,20.6,73.6,20.6
	c-19.3,0-34.9,16.6-34.9,37.1s15.7,37.1,34.9,37.1c5.1,0,9.9-1.1,14.4-3.3l0.3-0.1l0,0.3c0.7,7.3,2.9,13.3,11.8,21.3l-0.2,0.3
	c-5-2.8-10.8-4.7-17.6-5.8l-0.6,0c-2-0.2-4.3-0.3-6.8-0.3c-3.6,0-6.8,0.2-7.8,0.3c-0.2,0-0.3,0-0.4,0c-30,3.7-52.7,30.9-52.7,63.1
	v0.2H0.5z"/>
<path class="st1" d="M53,190.8v-0.2c0-32.1,18.2-60.5,46.4-72.5c-12.5-9.2-19.9-24.4-19.9-40.6c0-27.4,21-49.7,46.8-49.7
	c26,0,47.1,22.4,47.1,50c0,16.2-7.4,31.4-19.9,40.6c27.5,11.5,46.1,40.3,46.4,71.8l0,0.2H186v-0.2c0-31.4-22-58.4-51.2-62.7l-0.6,0
	c-2-0.2-4.3-0.3-6.8-0.3c-3.7,0-6.8,0.2-7.8,0.3c-0.2,0-0.3,0-0.4,0c-30,3.7-52.7,30.9-52.7,63.1v0.2H53z M126.3,40.5
	c-19.3,0-34.9,16.6-34.9,37.1s15.7,37.1,34.9,37.1c19.5,0,34.8-16.3,34.9-37.1C161.2,57.1,145.5,40.5,126.3,40.5z"/>
</svg>
