<?xml version="1.0" encoding="utf-8"?>
<!-- Generator: Adobe Illustrator 21.0.0, SVG Export Plug-In . SVG Version: 6.00 Build 0)  -->
<svg version="1.1" id="图层_1" xmlns="http://www.w3.org/2000/svg" xmlns:xlink="http://www.w3.org/1999/xlink" x="0px" y="0px"
	 viewBox="0 0 200 200" style="enable-background:new 0 0 200 200;" xml:space="preserve">
<style type="text/css">
	.st0{fill:#737987;}
	.st1{fill:#666666;}
</style>
<path class="st0" d="M-162.1,74.3"/>
<path class="st1" d="M21,188.7v-0.2c0-35,19.8-65.9,50.6-79C58,99.4,49.8,82.9,49.8,65.2c0-29.9,22.9-54.2,51-54.2
	c28.3,0,51.3,24.4,51.3,54.5c0,17.7-8.1,34.2-21.7,44.3c30,12.6,50.3,44,50.6,78.3l0,0.2h-15.1V188c0-34.2-24-63.6-55.8-68.4l-0.7,0
	c-2.2-0.2-4.7-0.3-7.4-0.3c-4,0-7.4,0.2-8.5,0.3c-0.2,0-0.4,0-0.4,0c-32.8,4.1-57.5,33.7-57.5,68.8v0.2H21z M100.9,24.8
	c-21,0-38.1,18.1-38.1,40.4s17.1,40.4,38.1,40.4c21.2,0,38-17.7,38.1-40.4C139,42.9,121.9,24.8,100.9,24.8z"/>
</svg>
