<?xml version="1.0" encoding="utf-8"?>
<!-- Generator: Adobe Illustrator 21.0.0, SVG Export Plug-In . SVG Version: 6.00 Build 0)  -->
<svg version="1.1" id="图层_1" xmlns="http://www.w3.org/2000/svg" xmlns:xlink="http://www.w3.org/1999/xlink" x="0px" y="0px"
	 viewBox="0 0 200 200" style="enable-background:new 0 0 200 200;" xml:space="preserve">
<style type="text/css">
	.st0{fill:#737987;}
	.st1{fill:#666666;}
</style>
<path class="st0" d="M45.2,83"/>
<g>
	<path class="st1" d="M99.4,0.1c-3.8,0-6,2.4-6,7v33.3l-7.8-7c-2.6-2.4-7.8-2.4-10.3,0c-2.6,2.4-2.6,7,0,9.1l18.9,17.2
		c2.6,2.4,7.8,2.4,10.3,0l18.8-17.2c1.3-1.2,2.6-2.4,2.6-4.5c0-3.3-2.6-7-7.8-7c-1.3,0-3.8,1.2-5.1,2.4l-7.8,7V7.1
		C105.6,2.5,102.8,0.1,99.4,0.1L99.4,0.1z"/>
	<path class="st1" d="M92.9,101.1L16.3,65.5v82.4L93,183.5v-82.4C93,101.1,92.9,101.1,92.9,101.1z M183.3,65.5l-78,36.9v82.4
		l78-36.9V65.5z M196.1,54.8v95.6c0,2.4-1.3,3.3-2.6,4.5l-90.8,44c-1.3,1.2-2.6,1.2-3.8,1.2c-2.5,0-3.8-1.2-5.1-2.4L7.3,156.2
		c-2.6-1.2-3.8-3.3-3.8-4.5V56c0-1.2,0.1-2.5,0.7-3.6c1-1.1,1.5-1.2,3.1-2.2l44.5-21.8c2.6-1.2,6.5,0,7.8,2.4s1.3,5.7-2.6,8.2
		L20.9,55.1l76.7,35.7l76.7-35.7l-33.4-16c-2.6-1.2-3.8-4.5-2.6-8.2c1.3-2.4,5.1-3.3,9-2.4L192,50.3c1,0.5,1.7,0.8,3,1.9
		C195.6,53,196.1,54,196.1,54.8L196.1,54.8z"/>
</g>
</svg>
