<?xml version="1.0" encoding="utf-8"?>
<!-- Generator: Adobe Illustrator 21.0.0, SVG Export Plug-In . SVG Version: 6.00 Build 0)  -->
<svg version="1.1" id="图层_1" xmlns="http://www.w3.org/2000/svg" xmlns:xlink="http://www.w3.org/1999/xlink" x="0px" y="0px"
	 viewBox="0 0 200 200" style="enable-background:new 0 0 200 200;" xml:space="preserve">
<style type="text/css">
	.st0{fill:#737987;}
	.st1{fill:#666666;}
</style>
<path class="st0" d="M45.2,83"/>
<path class="st1" d="M39.2,199.9c-21.1,0-38.8-17.8-38.8-38.8c0-21.4,17.4-38.8,38.8-38.8c3,0,6.1,0.4,9.2,1.3L50,124L76.6,70
	l-1.2-1c-8.9-7.5-14.1-18.7-14.1-30c0-21.1,17.8-38.8,38.8-38.8c21.4,0,38.8,17.4,38.8,38.8c0,11.7-5.3,22.9-14.1,30l-1.3,1l27,53.4
	l1.4-0.2c3.3-0.5,6.4-0.9,9.5-0.9c21.2,0,38.4,17.2,38.4,38.4c0,21.4-17.4,38.8-38.8,38.8c-17.6,0-33-12-37.5-29.1l-0.4-1.5
	l-45.9,0.5l-0.4,1.5C72.2,188,56.8,199.9,39.2,199.9z M161.4,137.2c-13.2,0-24.3,11.1-24.3,24.3c0,13.4,10.9,24.3,24.3,24.3
	c13.2,0,24.3-11.1,24.3-24.3C185.7,148.1,174.8,137.2,161.4,137.2z M38.7,137.2c-13.2,0-24.3,11.1-24.3,24.3
	c0,13.4,10.9,24.3,24.3,24.3c13.4,0,24.3-10.9,24.3-24.3C63.1,148.1,52.2,137.2,38.7,137.2z M62.7,130.5l1.2,1
	c7,6.1,11.6,13.7,13.3,22.1l0.3,1.7l45.2-0.5l0.3-1.6c1.7-8.4,6.3-16,13.3-22.1l1.2-1l-26.9-53.4l-1.5,0.2c-3.3,0.5-6.4,0.9-9.5,0.9
	c-3.2,0-6.2,0-8.6-0.8l-1.7-0.6L62.7,130.5z M100.1,14.6c-13.4,0-24.3,10.9-24.3,24.3c0,13.2,11.1,24.3,24.3,24.3
	c13.2,0,24.3-11.1,24.3-24.3C124.4,25.5,113.5,14.6,100.1,14.6z"/>
</svg>
