<?xml version="1.0" encoding="utf-8"?>
<!-- Generator: Adobe Illustrator 21.0.0, SVG Export Plug-In . SVG Version: 6.00 Build 0)  -->
<svg version="1.1" id="图层_1" xmlns="http://www.w3.org/2000/svg" xmlns:xlink="http://www.w3.org/1999/xlink" x="0px" y="0px"
	 viewBox="0 0 200 200" style="enable-background:new 0 0 200 200;" xml:space="preserve">
<style type="text/css">
	.st0{fill:#0090f4;}
</style>
<path class="st0" d="M5.5,193.7c-3,0-5.4-3-5.4-6.6s2.5-6.6,5.4-6.6h188.8c3,0,5.4,3,5.4,6.6s-2.5,6.6-5.4,6.6H5.5z M159.2,168.1
	c-3.8,0-7.4-1.4-10.1-4.2c-2.7-2.7-4.2-6.3-4.2-10.1V59c0-3.8,1.4-7.4,4.2-10.1c2.7-2.7,6.3-4.2,10.1-4.2h26.5
	c7.9,0,14.3,6.4,14.3,14.3v94.8c0,3.8-1.4,7.4-4.2,10.1c-2.7,2.7-6.3,4.2-10.1,4.2L159.2,168.1L159.2,168.1z M161.4,57.8
	c-1.8,0-3.4,1.5-3.4,3.4v90.4c0,0.9,0.4,1.7,1,2.4c0.6,0.6,1.5,1,2.4,1h22.1c0.9,0,1.7-0.3,2.4-1c0.6-0.6,1-1.5,1-2.4V61.2
	c0-0.9-0.4-1.7-1-2.4c-0.6-0.6-1.5-1-2.4-1C183.5,57.8,161.4,57.8,161.4,57.8z M86.7,168.1c-3.8,0-7.4-1.4-10.1-4.2
	c-2.7-2.7-4.2-6.4-4.2-10.1V19.3c0-3.8,1.4-7.4,4.2-10.1C79.3,6.5,82.9,5,86.7,5h26.5c7.9,0,14.3,6.4,14.3,14.3v134.6
	c0,3.8-1.4,7.4-4.2,10.1c-2.7,2.7-6.3,4.2-10.1,4.2H86.7z M89,18.1c-0.9,0-1.7,0.4-2.4,1c-0.6,0.6-1,1.5-1,2.4v130.1
	c0,0.9,0.4,1.7,1,2.4c0.6,0.6,1.5,1,2.4,1H111c0.9,0,1.7-0.4,2.4-1c0.6-0.6,1-1.5,1-2.4V21.5c0-0.9-0.4-1.7-1-2.4s-1.5-1-2.4-1
	C111,18.1,89,18.1,89,18.1z M14.3,168.1c-3.8,0-7.4-1.4-10.1-4.2c-2.7-2.7-4.2-6.3-4.2-10.1V92.1c0-3.8,1.4-7.4,4.2-10.1
	c2.7-2.7,6.3-4.2,10.1-4.2h26.5c3.8,0,7.4,1.4,10.1,4.2c2.7,2.8,4.2,6.3,4.2,10.1v61.7c0,3.8-1.4,7.4-4.2,10.1
	c-2.7,2.7-6.3,4.2-10.1,4.2L14.3,168.1L14.3,168.1z M16.4,91c-0.9,0-1.7,0.3-2.4,1c-0.6,0.6-1,1.5-1,2.4v57.3c0,0.9,0.4,1.7,1,2.4
	c0.6,0.6,1.5,1,2.4,1h22.1c0.9,0,1.7-0.3,2.4-1c0.6-0.6,1-1.5,1-2.4V94.3c0-0.9-0.3-1.7-1-2.4c-0.6-0.6-1.4-1-2.4-1H16.4V91z"/>
</svg>
