<?xml version="1.0" encoding="utf-8"?>
<!-- Generator: Adobe Illustrator 21.0.0, SVG Export Plug-In . SVG Version: 6.00 Build 0)  -->
<svg version="1.1" id="图层_1" xmlns="http://www.w3.org/2000/svg" xmlns:xlink="http://www.w3.org/1999/xlink" x="0px" y="0px"
	 viewBox="0 0 200 200" style="enable-background:new 0 0 200 200;" xml:space="preserve">
<style type="text/css">
	.st0{fill:#666666;}
</style>
<g>
	<path class="st0" d="M39.7,191c-1.3,0-2.6-0.5-3.6-1.4l-0.4-0.3C13,169.8,0,141.3,0,111c0-13.8,2.6-27.2,7.9-39.8
		c5-12.2,12.3-23.1,21.4-32.5c9.2-9.4,19.9-16.7,31.8-21.9c12.3-5.3,25.4-8,38.9-8c13.5,0,26.6,2.7,38.9,8
		c11.9,5.2,22.6,12.5,31.8,21.9c9.2,9.4,16.4,20.3,21.4,32.5c5.2,12.6,7.9,26,7.9,39.8c0,30.3-13,58.8-35.7,78.3l-0.4,0.3
		c-1,0.9-2.3,1.4-3.6,1.4H39.7z M100,23.1c-23,0-44.6,9.2-60.8,25.8C22.9,65.5,14,87.5,14,111c0,24.8,10.3,48.6,28.4,65.2l0.5,0.4
		h114.4l0.5-0.4c18-16.6,28.4-40.4,28.4-65.2c0-23.5-9-45.6-25.2-62.2C144.6,32.3,123,23.1,100,23.1z"/>
	<path class="st0" d="M125.3,78.9c-0.7-0.7-1.9-0.7-2.6,0l-19.2,19.6c-4.2-1.2-8.9,0-12.3,3.4c-5,5.1-5,13.3,0,18.4
		c5,5.1,13,5.1,18,0c3.3-3.4,4.4-8.2,3.3-12.5l19.2-19.6c0.7-0.7,0.7-1.9,0-2.6L125.3,78.9z M95,55.4h10c1,0,1.8-0.8,1.8-1.9V35
		c0-1-0.8-1.9-1.8-1.9H95c-1,0-1.8,0.8-1.8,1.9v18.6C93.2,54.6,94,55.4,95,55.4L95,55.4z M154,105.9v10.2c0,1,0.8,1.9,1.8,1.9H174
		c1,0,1.8-0.8,1.8-1.9v-10.2c0-1-0.8-1.9-1.8-1.9h-18.1C154.8,104.1,154,104.9,154,105.9L154,105.9z M156.9,60.2l-7.1-7.2
		c-0.7-0.7-1.9-0.7-2.6,0l-12.8,13.1c-0.7,0.7-0.7,1.9,0,2.6l7.1,7.2c0.7,0.7,1.9,0.7,2.6,0l12.8-13.1
		C157.6,62.1,157.6,60.9,156.9,60.2L156.9,60.2z M52.8,53c-0.7-0.7-1.9-0.7-2.6,0l-7.1,7.2c-0.7,0.7-0.7,1.9,0,2.6L56.1,76
		c0.7,0.7,1.9,0.7,2.6,0l7.1-7.2c0.7-0.7,0.7-1.9,0-2.6L52.8,53z M43.3,104.1H25.1c-1,0-1.8,0.8-1.8,1.9v10.2c0,1,0.8,1.9,1.8,1.9
		h18.1c1,0,1.8-0.8,1.8-1.9v-10.2C45.1,104.9,44.3,104.1,43.3,104.1L43.3,104.1z M43.3,104.1"/>
</g>
</svg>
