<?xml version="1.0" encoding="utf-8"?>
<!-- Generator: Adobe Illustrator 21.0.0, SVG Export Plug-In . SVG Version: 6.00 Build 0)  -->
<svg version="1.1" id="图层_1" xmlns="http://www.w3.org/2000/svg" xmlns:xlink="http://www.w3.org/1999/xlink" x="0px" y="0px"
	 viewBox="0 0 200 200" style="enable-background:new 0 0 200 200;" xml:space="preserve">
<style type="text/css">
	.st0{fill:#0090f4;}
	.st1{fill:#737987;}
</style>
<g>
	<path class="st0" d="M333.3,191c-1.3,0-2.6-0.5-3.6-1.4l-0.4-0.3c-22.7-19.5-35.7-48-35.7-78.3c0-13.8,2.6-27.2,7.9-39.8
		c5-12.2,12.3-23.1,21.4-32.5c9.2-9.4,19.9-16.7,31.8-21.9c12.3-5.3,25.4-8,38.9-8s26.6,2.7,38.9,8c11.9,5.2,22.6,12.5,31.8,21.9
		c9.2,9.4,16.4,20.3,21.4,32.5c5.2,12.6,7.9,26,7.9,39.8c0,30.3-13,58.8-35.7,78.3l-0.4,0.3c-1,0.9-2.3,1.4-3.6,1.4H333.3z
		 M393.6,23.1c-23,0-44.6,9.2-60.8,25.8c-16.3,16.6-25.2,38.7-25.2,62.2c0,24.8,10.3,48.6,28.4,65.2l0.5,0.4h114.4l0.5-0.4
		c18-16.6,28.4-40.4,28.4-65.2c0-23.5-9-45.6-25.2-62.2C438.2,32.3,416.6,23.1,393.6,23.1z"/>
	<path class="st0" d="M418.9,78.9c-0.7-0.7-1.9-0.7-2.6,0l-19.2,19.6c-4.2-1.2-8.9,0-12.3,3.4c-5,5.1-5,13.3,0,18.4s13,5.1,18,0
		c3.3-3.4,4.4-8.2,3.3-12.5l19.2-19.6c0.7-0.7,0.7-1.9,0-2.6L418.9,78.9z M388.6,55.4h10c1,0,1.8-0.8,1.8-1.9V35
		c0-1-0.8-1.9-1.8-1.9h-10c-1,0-1.8,0.8-1.8,1.9v18.6C386.8,54.6,387.6,55.4,388.6,55.4L388.6,55.4z M447.6,105.9v10.2
		c0,1,0.8,1.9,1.8,1.9h18.1c1,0,1.8-0.8,1.8-1.9v-10.2c0-1-0.8-1.9-1.8-1.9h-18.1C448.4,104.1,447.6,104.9,447.6,105.9L447.6,105.9z
		 M450.5,60.2l-7.1-7.2c-0.7-0.7-1.9-0.7-2.6,0L428,66.1c-0.7,0.7-0.7,1.9,0,2.6l7.1,7.2c0.7,0.7,1.9,0.7,2.6,0l12.8-13.1
		C451.2,62.1,451.2,60.9,450.5,60.2L450.5,60.2z M346.5,53c-0.7-0.7-1.9-0.7-2.6,0l-7.1,7.2c-0.7,0.7-0.7,1.9,0,2.6l12.8,13.1
		c0.7,0.7,1.9,0.7,2.6,0l7.1-7.2c0.7-0.7,0.7-1.9,0-2.6L346.5,53z M336.9,104.1h-18.1c-1,0-1.8,0.8-1.8,1.9v10.2
		c0,1,0.8,1.9,1.8,1.9h18.1c1,0,1.8-0.8,1.8-1.9V106C338.7,104.9,337.9,104.1,336.9,104.1L336.9,104.1z"/>
</g>
<g>
	<path class="st0" d="M181.4,11.8H18.8c-3.7,0-6.8,3-6.8,6.8v162.6c0,3.7,3,6.8,6.8,6.8h162.6c3.7,0,6.8-3.1,6.8-6.8V18.6
		C188.2,14.9,185.1,11.8,181.4,11.8z M174.6,174.5h-149V62.7h149.1L174.6,174.5L174.6,174.5z M174.6,49.1h-149V25.4h149.1
		L174.6,49.1L174.6,49.1z"/>
	<rect x="45.9" y="144" class="st0" width="108.4" height="13.6"/>
	<rect x="45.9" y="113.5" class="st0" width="108.4" height="13.6"/>
	<rect x="45.9" y="83" class="st0" width="108.4" height="13.6"/>
</g>
<path class="st1" d="M46.9,83"/>
<path class="st1" d="M-267.8,83"/>
<g>
	<path class="st0" d="M-213.6,0.1c-3.8,0-6,2.4-6,7v33.3l-7.8-7c-2.6-2.4-7.8-2.4-10.3,0c-2.6,2.4-2.6,7,0,9.1l18.9,17.2
		c2.6,2.4,7.8,2.4,10.3,0l18.8-17.2c1.3-1.2,2.6-2.4,2.6-4.5c0-3.3-2.6-7-7.8-7c-1.3,0-3.8,1.2-5.1,2.4l-7.8,7V7.1
		C-207.4,2.5-210.2,0.1-213.6,0.1L-213.6,0.1z"/>
	<path class="st0" d="M-220.1,101.2l-76.6-35.7v82.4l76.7,35.7v-82.4C-220,101.2-220.1,101.2-220.1,101.2z M-129.7,65.5l-78,36.9
		v82.4l78-36.9V65.5z M-116.9,54.8v95.6c0,2.4-1.3,3.3-2.6,4.5l-90.8,44c-1.3,1.2-2.6,1.2-3.8,1.2c-2.5,0-3.8-1.2-5.1-2.4
		l-86.5-41.4c-2.6-1.2-3.8-3.3-3.8-4.5V56c0-1.2,0.1-2.5,0.7-3.6c1-1.1,1.5-1.2,3.1-2.2l44.5-21.8c2.6-1.2,6.5,0,7.8,2.4
		s1.3,5.7-2.6,8.2l-36.1,16.1l76.7,35.7l76.7-35.7l-33.4-16c-2.6-1.2-3.8-4.5-2.6-8.2c1.3-2.4,5.1-3.3,9-2.4l44.7,21.8
		c1,0.5,1.7,0.8,3,1.9C-117.4,53-116.9,54-116.9,54.8L-116.9,54.8z"/>
</g>
<path class="st1" d="M-559.8,83"/>
<g>
	<path class="st0" d="M-505.6,0.1c-3.8,0-6,2.4-6,7v33.3l-7.8-7c-2.6-2.4-7.8-2.4-10.3,0c-2.6,2.4-2.6,7,0,9.1l18.9,17.2
		c2.6,2.4,7.8,2.4,10.3,0l18.8-17.2c1.3-1.2,2.6-2.4,2.6-4.5c0-3.3-2.6-7-7.8-7c-1.3,0-3.8,1.2-5.1,2.4l-7.8,7V7.1
		C-499.4,2.5-502.2,0.1-505.6,0.1L-505.6,0.1z"/>
	<path class="st0" d="M-512.1,101.2l-76.6-35.7v82.4l76.7,35.7L-512.1,101.2C-512,101.2-512.1,101.2-512.1,101.2z M-421.7,65.5
		l-78,36.9v82.4l78-36.9V65.5z M-408.9,54.8v95.6c0,2.4-1.3,3.3-2.6,4.5l-90.8,44c-1.3,1.2-2.6,1.2-3.8,1.2c-2.5,0-3.8-1.2-5.1-2.4
		l-86.5-41.4c-2.6-1.2-3.8-3.3-3.8-4.5V56c0-1.2,0.1-2.5,0.7-3.6c1-1.1,1.5-1.2,3.1-2.2l44.5-21.8c2.6-1.2,6.5,0,7.8,2.4
		s1.3,5.7-2.6,8.2l-36.1,16.1l76.7,35.7l76.7-35.7l-33.4-16c-2.6-1.2-3.8-4.5-2.6-8.2c1.3-2.4,5.1-3.3,9-2.4l44.7,21.8
		c1,0.5,1.7,0.8,3,1.9C-409.4,53-408.9,54-408.9,54.8L-408.9,54.8z"/>
</g>
</svg>
