<?xml version="1.0" encoding="utf-8"?>
<!-- Generator: Adobe Illustrator 21.0.0, SVG Export Plug-In . SVG Version: 6.00 Build 0)  -->
<svg version="1.1" id="图层_1" xmlns="http://www.w3.org/2000/svg" xmlns:xlink="http://www.w3.org/1999/xlink" x="0px" y="0px"
	 viewBox="0 0 200 200" style="enable-background:new 0 0 200 200;" xml:space="preserve">
<style type="text/css">
	.st0{fill:#0090f4;}
	.st1{fill:#737987;}
</style>
<g>
	<path class="st0" d="M47.5,81.4c0.9-3.8-1.5-7.5-5.3-8.3c-3.7-0.9-7.5,1.5-8.3,5.3c-4.3,19.3,1.5,39.2,15.4,53.1
		c1.3,1.3,3.1,2.1,4.9,2.1c1.8,0,3.6-0.7,4.9-2.1c2.7-2.7,2.7-7.2,0-9.9C48.6,111,44.2,96,47.5,81.4z"/>
	<path class="st0" d="M191,179.4l-39.3-39.3c24.5-31.5,22.3-77-6.6-106.1c-15.7-15.5-36.2-23.4-56.8-23.4
		c-20.6,0-41.1,7.8-56.8,23.5c-31.3,31.3-31.3,82.1,0,113.5c15.7,15.7,36.2,23.5,56.8,23.5c19.3,0,38.7-6.9,53.9-20.8l39,38.9
		c1.3,1.3,3.1,2.1,4.9,2.1c1.7,0,3.6-0.7,4.9-2.1C193.7,186.7,193.7,182.1,191,179.4z M88.3,157.4c-17.8,0-34.4-6.9-46.9-19.5
		c-25.8-25.8-25.8-67.9,0-93.8C54,31.6,70.6,24.7,88.3,24.7c17.8,0,34.4,6.9,46.9,19.5c12.5,12.5,19.5,29.1,19.5,46.9
		c0,17.8-6.9,34.4-19.5,46.9C122.7,150.4,106,157.4,88.3,157.4z"/>
</g>
<path class="st1" d="M-162.1,74.3"/>
</svg>
